<?xml version="1.0" encoding="UTF-8" standalone="no"?>
<svg
   fill="none"
   viewBox="0 0 16 16"
   version="1.1"
   id="svg1"
   sodipodi:docname="wrap2.svg"
   inkscape:version="1.4.3 (fcd0343856, 2026-01-01)"
   xml:space="preserve"
   xmlns:inkscape="http://www.inkscape.org/namespaces/inkscape"
   xmlns:sodipodi="http://sodipodi.sourceforge.net/DTD/sodipodi-0.dtd"
   xmlns="http://www.w3.org/2000/svg"
   xmlns:svg="http://www.w3.org/2000/svg"><defs
     id="defs1" /><sodipodi:namedview
     id="namedview1"
     pagecolor="#ffffff"
     bordercolor="#000000"
     borderopacity="0.25"
     inkscape:showpageshadow="2"
     inkscape:pageopacity="0.0"
     inkscape:pagecheckerboard="0"
     inkscape:deskcolor="#d1d1d1"
     inkscape:zoom="17.633475"
     inkscape:cx="-4.3099842"
     inkscape:cy="11.001802"
     inkscape:window-width="1920"
     inkscape:window-height="959"
     inkscape:window-x="0"
     inkscape:window-y="0"
     inkscape:window-maximized="1"
     inkscape:current-layer="g1"
     showgrid="true"><inkscape:grid
       id="grid5"
       units="px"
       originx="0"
       originy="0"
       spacingx="1"
       spacingy="1"
       empcolor="#0099e5"
       empopacity="0.30196078"
       color="#0099e5"
       opacity="0.14901961"
       empspacing="5"
       enabled="true"
       visible="true" /></sodipodi:namedview><path
     d="m9.6 1h-3.2c-1.14 0-1.93 7.8e-4 -2.55 0.0512-0.605 0.0494-0.953 0.142-1.22 0.276-0.564 0.288-1.02 0.747-1.31 1.31-0.134 0.263-0.226 0.611-0.276 1.22-0.0504 0.617-0.0512 1.41-0.0512 2.55v3.2c0 1.14 7.8e-4 1.93 0.0512 2.55 0.0494 0.605 0.142 0.953 0.276 1.22 0.288 0.564 0.747 1.02 1.31 1.31 0.263 0.134 0.611 0.226 1.22 0.276 0.617 0.0504 1.41 0.0512 2.55 0.0512h3.2c1.14 0 1.93-8e-4 2.55-0.0512 0.605-0.0494 0.953-0.142 1.22-0.276 0.564-0.288 1.02-0.746 1.31-1.31 0.134-0.263 0.226-0.611 0.276-1.22 0.0504-0.617 0.0512-1.41 0.0512-2.55v-3.2c0-1.14-8e-4 -1.93-0.0512-2.55-0.0494-0.605-0.142-0.953-0.276-1.22-0.288-0.564-0.746-1.02-1.31-1.31-0.263-0.134-0.611-0.226-1.22-0.276-0.617-0.0504-1.41-0.0512-2.55-0.0512zm-9.16 1.18c-0.436 0.856-0.436 1.98-0.436 4.22v3.2c0 2.24 0 3.36 0.436 4.22 0.383 0.753 0.995 1.36 1.75 1.75 0.856 0.436 1.98 0.436 4.22 0.436h3.2c2.24 0 3.36 0 4.22-0.436 0.753-0.384 1.36-0.995 1.75-1.75 0.436-0.856 0.436-1.98 0.436-4.22v-3.2c0-2.24 0-3.36-0.436-4.22-0.384-0.753-0.995-1.36-1.75-1.75-0.856-0.436-1.98-0.436-4.22-0.436h-3.2c-2.24 0-3.36 0-4.22 0.436-0.753 0.383-1.36 0.995-1.75 1.75z"
     clip-rule="evenodd"
     fill="#000"
     fill-rule="evenodd"
     id="path1" /><g
     style="fill:none"
     id="g1"
     transform="translate(-0.505,0.496)"><g
       id="g5"
       transform="translate(-0.0148798,0.504048)"><path
         d="m 8.5169505,14.501904 c -0.133,0 -0.259716,-0.05278 -0.353516,-0.146484 -0.0933,-0.094 -0.146484,-0.220516 -0.146484,-0.353516 v -2.783203 l -1.142579,1.142578 c -0.094,0.0943 -0.220515,0.146484 -0.353515,0.146484 -0.133,0 -0.259616,-0.05258 -0.353516,-0.146484 -0.0943,-0.094 -0.148437,-0.220516 -0.148437,-0.353516 0,-0.133 0.05454,-0.259616 0.148437,-0.353516 l 2,-1.9999995 c 0.046,-0.0469 0.10141,-0.08418 0.16211,-0.109375 0.061,-0.0252 0.125606,-0.03906 0.191406,-0.03906 0.066,0 0.131406,0.01356 0.191406,0.03906 0.06,0.0255 0.115709,0.06278 0.162109,0.109375 l 2.0000005,1.9999995 c 0.0942,0.094 0.148437,0.220516 0.148437,0.353516 0,0.133 -0.05454,0.259616 -0.148437,0.353516 -0.094,0.0943 -0.220516,0.146484 -0.353516,0.146484 -0.133,0 -0.259615,-0.05258 -0.353515,-0.146484 L 9.0169505,11.210888 v 2.791016 c 0,0.133 -0.05268,0.259716 -0.146485,0.353516 -0.094,0.0933 -0.220515,0.146484 -0.353515,0.146484 z"
         style="fill:#000000"
         id="path5" /><path
         d="m 13.528669,9.5097188 c 0.133,0 0.259516,-0.052284 0.353516,-0.1464844 0.0939,-0.0939 0.148438,-0.2205156 0.148438,-0.3535156 0,-0.133 -0.05414,-0.2595156 -0.148438,-0.3535156 L 12.731794,7.5058126 h 2.791016 c 0.133,0 0.259516,-0.053184 0.353516,-0.1464844 0.0937,-0.0938 0.146484,-0.2205156 0.146484,-0.3535156 0,-0.133 -0.05318,-0.2595157 -0.146484,-0.3535156 -0.0938,-0.0938 -0.220516,-0.1464844 -0.353516,-0.1464844 H 12.731794 L 13.882185,5.355422 c 0.0939,-0.0939 0.148438,-0.2205157 0.148438,-0.3535157 0,-0.133 -0.05414,-0.2595156 -0.148438,-0.3535156 -0.0939,-0.0939 -0.220516,-0.1484375 -0.353516,-0.1484375 -0.133,0 -0.259515,0.054137 -0.353515,0.1484375 l -2,2 c -0.0466,0.0464 -0.08387,0.1001562 -0.109375,0.1601563 -0.0252,0.0608 -0.03906,0.1273593 -0.03906,0.1933593 0,0.0658 0.01386,0.1304063 0.03906,0.1914063 0.0252,0.061 0.06248,0.1161094 0.109375,0.1621094 l 2,1.9999999 v 0.00781 c 0.0939,0.093903 0.220515,0.1464869 0.353515,0.1464869 z"
         style="fill:#000000"
         id="path4" /><path
         d="m 8.5110937,4.4940937 c 0.066,0 0.1306063,-0.013863 0.1914063,-0.039063 0.06,-0.0255 0.1157093,-0.062775 0.1621092,-0.109375 h 0.00781 L 10.872419,2.3456558 c 0.0942,-0.094 0.148438,-0.2205157 0.148438,-0.3535157 0,-0.133 -0.05454,-0.2596155 -0.148438,-0.3535155 -0.094,-0.0942 -0.220515,-0.1484375 -0.353515,-0.1484375 -0.133,0 -0.259616,0.054537 -0.353516,0.1484375 l -1.1503881,1.148438 v -2.78906255 c 0,-0.133 -0.052484,-0.26021565 -0.1464844,-0.35351565 C 8.7745155,-0.4488156 8.648,-0.502 8.515,-0.502 c -0.133,0 -0.2602157,0.052484 -0.3535157,0.1464844 -0.0933,0.094 -0.1464844,0.22051565 -0.1464844,0.35351565 V 2.7870626 L 6.8646093,1.6386251 c -0.046,-0.047 -0.1011094,-0.084275 -0.1621094,-0.109375 -0.061,-0.0251 -0.1257062,-0.039063 -0.1914062,-0.039063 -0.066,0 -0.1314063,0.013462 -0.1914063,0.039063 -0.06,0.0256 -0.1156093,0.062875 -0.1621093,0.109375 -0.047,0.046 -0.084175,0.1011094 -0.109375,0.1621093 -0.0252,0.061 -0.039063,0.1256062 -0.039063,0.1914062 0,0.066 0.013462,0.1314063 0.039063,0.1914063 0.0256,0.06 0.062875,0.1156094 0.109375,0.1621094 l 2,1.9999999 c 0.046,0.0469 0.1014093,0.084175 0.1621094,0.109375 0.061,0.0252 0.1256062,0.039063 0.1914062,0.039063 z"
         style="fill:#000000"
         id="path3" /><path
         d="m 3.5110902,9.5097163 c 0.133,0 0.2596158,-0.052584 0.3535156,-0.1464844 v -0.00781 l 2,-1.9999998 c 0.0469,-0.046 0.084175,-0.1013094 0.1093751,-0.1621094 0.0252,-0.061 0.039063,-0.1256064 0.039063,-0.1914063 0,-0.066 -0.013863,-0.1325593 -0.039063,-0.1933593 -0.0255,-0.06 -0.062775,-0.1137563 -0.1093751,-0.1601563 L 3.8646059,4.6483907 c -0.094,-0.0943 -0.2205156,-0.1484375 -0.3535156,-0.1484375 -0.133,0 -0.2596156,0.054538 -0.3535156,0.1484375 -0.0942,0.094 -0.1464844,0.2205156 -0.1464844,0.3535156 0,0.133 0.052584,0.2596157 0.1464844,0.3535157 L 4.3079652,6.5058102 H 1.5169496 c -0.133,0 -0.2602156,0.052484 -0.3535156,0.1464844 -0.0933,0.094 -0.1464844,0.2205156 -0.1464844,0.3535156 0,0.133 0.052484,0.2602155 0.1464844,0.3535155 0.094,0.0933 0.2205156,0.1464845 0.3535156,0.1464845 H 4.3079652 L 3.1575746,8.6562007 c -0.0942,0.094 -0.1464844,0.2205156 -0.1464844,0.3535156 0,0.133 0.052584,0.2596156 0.1464844,0.3535156 0.094,0.0942 0.2205156,0.1464844 0.3535156,0.1464844 z"
         style="fill:#000000"
         id="path2" /></g></g></svg>
